<svg width="530" height="101" viewBox="0 0 530 101" fill="none" xmlns="http://www.w3.org/2000/svg">
<rect width="530" height="101" fill="#5789A4"/>
<path d="M34.128 47.168H43.344V33.92H50.352V68H43.344V53.792H34.128V68H27.12V33.92H34.128V47.168ZM65.106 41.168C71.298 41.168 74.946 45.44 74.946 50.768V59.024C74.946 64.352 71.298 68.624 65.106 68.624C58.866 68.624 55.218 64.352 55.218 59.024V50.768C55.218 45.44 58.866 41.168 65.106 41.168ZM68.61 58.928V50.864C68.61 48.896 67.362 47.216 65.106 47.216C62.85 47.216 61.602 48.896 61.602 50.864V58.928C61.602 60.896 62.85 62.576 65.106 62.576C67.362 62.576 68.61 60.896 68.61 58.928ZM83.8875 41.792L87.2955 58.592L91.2315 41.792H96.8955L100.784 58.544L104.24 41.792H110.864L104.48 68H97.9515L94.0155 52.64L90.1275 68H83.5515L77.1675 41.792H83.8875ZM128.216 68V40.496H120.392V33.92H143V40.496H135.224V68H128.216ZM152.809 41.168C159.001 41.168 162.649 45.44 162.649 50.768V59.024C162.649 64.352 159.001 68.624 152.809 68.624C146.569 68.624 142.921 64.352 142.921 59.024V50.768C142.921 45.44 146.569 41.168 152.809 41.168ZM156.313 58.928V50.864C156.313 48.896 155.065 47.216 152.809 47.216C150.553 47.216 149.305 48.896 149.305 50.864V58.928C149.305 60.896 150.553 62.576 152.809 62.576C155.065 62.576 156.313 60.896 156.313 58.928ZM166.127 41.456L166.079 33.968H173.807V40.976L171.455 48.464H167.471L169.775 41.456H166.127ZM195.711 49.952H189.279V49.904C189.279 48.32 188.175 46.976 186.255 46.976C184.239 46.976 183.519 47.936 183.519 48.992C183.519 50.432 185.247 50.912 187.743 51.728L190.143 52.592C193.743 53.888 196.095 56.144 196.095 60.32C196.095 65.12 192.447 68.624 186.543 68.624C180.831 68.624 176.847 64.832 176.847 60.128V59.504H183.231C183.231 61.712 184.767 62.816 186.735 62.816C188.415 62.816 189.711 62.048 189.711 60.512C189.711 59.072 187.791 58.496 185.727 57.776L183.183 56.864C179.295 55.424 177.183 53.312 177.183 49.04C177.135 44.384 180.927 41.216 186.303 41.216C190.479 41.216 195.711 43.808 195.711 49.952ZM223.444 32.72V38.48H220.324C219.268 38.48 218.5 38.816 218.5 40.256V41.792H223.444V47.552H218.5V68H212.116V47.552H208.756V41.792H212.116V39.296C212.116 35.504 215.092 32.72 219.172 32.72H223.444ZM235.59 41.168C241.782 41.168 245.43 45.44 245.43 50.768V59.024C245.43 64.352 241.782 68.624 235.59 68.624C229.35 68.624 225.702 64.352 225.702 59.024V50.768C225.702 45.44 229.35 41.168 235.59 41.168ZM239.094 58.928V50.864C239.094 48.896 237.846 47.216 235.59 47.216C233.334 47.216 232.086 48.896 232.086 50.864V58.928C232.086 60.896 233.334 62.576 235.59 62.576C237.846 62.576 239.094 60.896 239.094 58.928ZM262.093 41.168H263.053V47.84H261.277C258.397 47.84 256.333 49.568 256.333 52.736V68H249.949V41.792H255.757V44.768C257.053 42.56 259.117 41.168 262.093 41.168ZM298.776 41.168V41.216C303.864 41.216 306.6 45.008 306.6 49.328V68.048H300.264L300.216 50.768C300.216 48.704 299.304 47.264 297.384 47.264C295.416 47.264 294.264 48.704 294.264 50.816V68.048H287.88V50.768C287.88 48.704 286.968 47.264 285.048 47.264C283.272 47.264 282.168 48.368 281.928 50.048V68H275.544V41.792H281.352V44C282.504 42.272 284.328 41.216 286.872 41.216C289.56 41.216 291.528 42.32 292.776 44.048C294.024 42.272 295.992 41.168 298.776 41.168ZM320.424 41.168C326.232 41.168 329.784 45.44 329.784 50.864V68H324.312V66.224C323.016 67.664 321.192 68.624 318.648 68.624C313.368 68.624 310.44 64.976 310.44 60.32C310.44 55.856 313.56 52.304 319.128 52.304C320.856 52.304 322.296 52.784 323.448 53.504V50.912C323.448 48.704 322.296 47.216 320.424 47.216C318.696 47.216 317.448 48.464 317.448 49.904H311.064C311.064 45.008 314.856 41.168 320.424 41.168ZM320.28 63.584C322.536 63.584 323.688 62.096 323.688 60.464C323.688 58.832 322.536 57.344 320.28 57.344C318.168 57.344 316.824 58.832 316.824 60.464C316.824 62.096 318.168 63.584 320.28 63.584ZM334.603 32.72H341.323V38.912H334.603V32.72ZM334.747 68V41.792H341.131V68H334.747ZM357.608 41.168C362.888 41.168 365.528 44.912 365.528 49.232V68H359.144V50.912C359.144 48.752 358.088 47.216 355.88 47.216C353.816 47.216 352.616 48.704 352.616 50.912V68H346.232V41.792H352.04V44C353.192 42.272 355.064 41.168 357.608 41.168ZM371.958 34.544H378.342V41.792H383.142V47.552H378.342V59.984C378.342 61.424 379.158 61.856 380.262 61.856H382.95V68H379.062C374.982 68 371.958 65.216 371.958 61.376V47.552H368.55V41.792H371.958V34.544ZM395.987 41.168C401.795 41.168 405.347 45.44 405.347 50.864V68H399.875V66.224C398.579 67.664 396.755 68.624 394.211 68.624C388.931 68.624 386.003 64.976 386.003 60.32C386.003 55.856 389.123 52.304 394.691 52.304C396.419 52.304 397.859 52.784 399.011 53.504V50.912C399.011 48.704 397.859 47.216 395.987 47.216C394.259 47.216 393.011 48.464 393.011 49.904H386.627C386.627 45.008 390.419 41.168 395.987 41.168ZM395.843 63.584C398.099 63.584 399.251 62.096 399.251 60.464C399.251 58.832 398.099 57.344 395.843 57.344C393.731 57.344 392.387 58.832 392.387 60.464C392.387 62.096 393.731 63.584 395.843 63.584ZM410.166 32.72H416.886V38.912H410.166V32.72ZM410.31 68V41.792H416.694V68H410.31ZM433.17 41.168C438.45 41.168 441.09 44.912 441.09 49.232V68H434.706V50.912C434.706 48.752 433.65 47.216 431.442 47.216C429.378 47.216 428.178 48.704 428.178 50.912V68H421.794V41.792H427.602V44C428.754 42.272 430.626 41.168 433.17 41.168ZM458.892 59.984H465.276C465.036 64.784 461.388 68.624 455.34 68.624C449.148 68.624 445.452 64.448 445.452 59.072V50.816C445.452 45.488 449.1 41.216 455.196 41.216C461.436 41.216 465.084 45.488 465.084 50.912V57.008H451.836V59.168C451.836 61.136 453.036 62.672 455.34 62.672C457.452 62.672 458.748 61.472 458.892 59.984ZM455.196 47.168C452.988 47.168 451.836 48.8 451.836 50.72V51.584H458.7V50.816C458.7 48.8 457.5 47.168 455.196 47.168ZM481.749 41.168H482.709V47.84H480.933C478.053 47.84 475.989 49.568 475.989 52.736V68H469.605V41.792H475.413V44.768C476.709 42.56 478.773 41.168 481.749 41.168ZM503.633 49.952H497.201V49.904C497.201 48.32 496.097 46.976 494.177 46.976C492.161 46.976 491.441 47.936 491.441 48.992C491.441 50.432 493.169 50.912 495.665 51.728L498.065 52.592C501.665 53.888 504.017 56.144 504.017 60.32C504.017 65.12 500.369 68.624 494.465 68.624C488.753 68.624 484.769 64.832 484.769 60.128V59.504H491.153C491.153 61.712 492.689 62.816 494.657 62.816C496.337 62.816 497.633 62.048 497.633 60.512C497.633 59.072 495.713 58.496 493.649 57.776L491.105 56.864C487.217 55.424 485.105 53.312 485.105 49.04C485.057 44.384 488.849 41.216 494.225 41.216C498.401 41.216 503.633 43.808 503.633 49.952Z" fill="black"/>
</svg>
